<?xml version="1.0" encoding="utf-8"?>
<!-- Generator: Adobe Illustrator 17.1.0, SVG Export Plug-In . SVG Version: 6.00 Build 0)  -->
<!DOCTYPE svg PUBLIC "-//W3C//DTD SVG 1.1//EN" "http://www.w3.org/Graphics/SVG/1.1/DTD/svg11.dtd">
<svg version="1.1" id="Layer_1" xmlns="http://www.w3.org/2000/svg" xmlns:xlink="http://www.w3.org/1999/xlink" x="0px" y="0px"
	 viewBox="0 0 1230 820" enable-background="new 0 0 1230 820" xml:space="preserve">
<g>
	<path fill="#FFFFFF" d="M273.3,331.9c0-1.1,0.9-1.9,1.9-1.9h42.9c1.1,0,1.9,1,1.9,1.9v11.3c0,1.1-0.9,1.9-1.9,1.9h-28.6v14.9h23.6
		c1,0,1.9,1,1.9,1.9v11.3c0,1.1-1,1.9-1.9,1.9h-23.6v25.2c0,1.1-1,1.9-1.9,1.9h-12.2c-1.1,0-1.9-1-1.9-1.9v-68.6H273.3z"/>
	<path fill="#FFFFFF" d="M331.7,331.9c0-1.1,0.9-1.9,1.9-1.9h30.9c12.4,0,22.5,10,22.5,22.4c0,9.5-6.3,17.2-15.3,20.8l14.1,26.3
		c0.7,1.3,0,3-1.7,3h-13.8c-0.9,0-1.5-0.5-1.7-1l-13.6-27.5h-7.2v26.4c0,1.1-1,1.9-1.9,1.9h-12.3c-1.1,0-1.9-1-1.9-1.9V331.9z
		 M363.2,360.9c4.3,0,7.9-3.9,7.9-8.3c0-4.4-3.7-7.9-7.9-7.9h-15.3v16.2H363.2z"/>
	<path fill="#FFFFFF" d="M391.7,399.8l32.4-69.7c0.4-0.6,1.1-1.1,1.7-1.1h1.1c0.7,0,1.5,0.5,1.7,1.1l32.4,69.7
		c0.6,1.3-0.2,2.7-1.7,2.7h-11.4c-1.8,0-2.7-0.6-3.7-2.6l-3.8-8.2h-28.1l-3.8,8.3c-0.5,1.2-1.7,2.4-3.8,2.4h-11.3
		C391.9,402.4,391.1,401.1,391.7,399.8z M434.2,377.6l-7.9-17.1l0,0l-7.8,17.1H434.2z"/>
	<path fill="#FFFFFF" d="M469.4,330.8c0-1.1,1-1.8,1.9-1.8h2.6l41.3,39.7h0.1v-36.8c0-1.1,0.9-1.9,1.9-1.9h12.5c1.1,0,1.9,1,1.9,1.9
		v69.7c0,1.1-1,1.8-1.9,1.8h-1.7c-0.4,0-1.1-0.4-1.3-0.5l-40.9-41h-0.1v38.6c0,1.1-0.9,1.9-1.9,1.9h-12.3c-1.1,0-1.9-1-1.9-1.9
		L469.4,330.8z"/>
	<path fill="#FFFFFF" d="M549.6,332.4c0-1.3,1.1-2.4,2.4-2.4h12.1c1.3,0,2.4,1.1,2.4,2.4v27.3l23-28.6c0.4-0.5,1.3-1.1,1.9-1.1h13
		c1.9,0,3,2.3,1.8,3.8l-24.2,30.3l26.4,34.3c1.1,1.6,0,3.8-1.9,3.8h-14.3c-0.7,0-1.7-0.4-1.8-0.7L566.6,369v30.8
		c0,1.3-1.1,2.4-2.4,2.4h-12.1c-1.5,0-2.4-1.1-2.4-2.4v-67.4H549.6z"/>
	<path fill="#FFFFFF" d="M619.3,331.9c0-1.1,0.9-1.9,1.9-1.9h12.3c1.1,0,1.9,1,1.9,1.9v55.3h24.7c1.1,0,1.9,1,1.9,1.9v11.3
		c0,1.1-0.9,1.9-1.9,1.9h-39c-1.1,0-1.9-1-1.9-1.9V331.9z"/>
	<path fill="#FFFFFF" d="M672.1,331.9c0-1.1,1-1.9,1.9-1.9h12.4c1,0,1.9,1,1.9,1.9v68.6c0,1.1-1,1.9-1.9,1.9h-12.4
		c-1.1,0-1.9-1-1.9-1.9V331.9z"/>
	<path fill="#FFFFFF" d="M706.2,330.8c0-1.1,1-1.8,1.9-1.8h2.6l41.3,39.7h0.1v-36.8c0-1.1,0.9-1.9,1.9-1.9h12.4c1.1,0,1.9,1,1.9,1.9
		v69.7c0,1.1-1,1.8-1.9,1.8h-1.6c-0.4,0-1.1-0.4-1.3-0.5l-40.9-41h-0.1v38.6c0,1.1-0.9,1.9-1.9,1.9h-12.3c-1.1,0-1.9-1-1.9-1.9
		L706.2,330.8z"/>
	<path fill="#FFFFFF" d="M841.3,328.9c10.4,0,18,3.2,25.1,9.6c1,0.9,1,2.1,0.1,2.9l-8,8.4c-0.7,0.7-1.8,0.7-2.6,0
		c-3.8-3.4-8.9-5.2-14-5.2c-11.7,0-20.3,9.7-20.3,21.3c0,11.4,8.6,21.1,20.3,21.1c4.9,0,10.1-1.7,13.9-5c0.7-0.6,2.1-0.6,2.7,0.1
		l8,8.6c0.7,0.7,0.6,2.1-0.1,2.8c-7.1,6.8-16,10-25.2,10c-20.7,0-37.4-16.4-37.4-37.2C803.9,345.6,820.6,328.9,841.3,328.9z"/>
	<path fill="#FFFFFF" d="M910.5,328.9c20.7,0,37.3,16.7,37.3,37.4c0,20.7-16.6,37.2-37.3,37.2c-20.7,0-37.2-16.4-37.2-37.2
		C873.4,345.6,889.8,328.9,910.5,328.9z M910.5,386.9c11.4,0,20.7-9.4,20.7-20.6c0-11.4-9.4-20.8-20.7-20.8
		c-11.3,0-20.6,9.4-20.6,20.8C889.9,377.6,899.2,386.9,910.5,386.9z"/>
	<path fill="#FFFFFF" d="M959.2,331.9c0-1.1,1-1.9,1.9-1.9H974c1.1,0,1.9,1,1.9,1.9v41.9c0,7.3,5.4,13,12.8,13
		c7.4,0,12.9-5.8,12.9-13v-41.9c0-1.1,0.9-1.9,1.9-1.9h12.8c1.1,0,1.9,1,1.9,1.9v42.8c0,15.7-13.3,28.7-29.6,28.7
		c-16.2,0-29.4-13-29.4-28.7v-42.8H959.2z"/>
	<path fill="#FFFFFF" d="M1034.9,330.8c0-1.1,1-1.8,1.9-1.8h2.6l41.3,39.7h0.1v-36.8c0-1.1,0.9-1.9,1.9-1.9h12.4
		c1.1,0,1.9,1,1.9,1.9v69.7c0,1.1-1,1.8-1.9,1.8h-1.7c-0.4,0-1.1-0.4-1.3-0.5l-40.8-41h-0.1v38.6c0,1.1-0.9,1.9-1.9,1.9h-12.3
		c-1.1,0-1.9-1-1.9-1.9L1034.9,330.8z"/>
	<path fill="#FFFFFF" d="M1124.3,345.2h-14.9c-1.1,0-1.9-1-1.9-1.9v-11.3c0-1.1,0.9-1.9,1.9-1.9h45.9c1.1,0,1.9,1,1.9,1.9v11.3
		c0,1.1-0.9,1.9-1.9,1.9h-14.9v55.3c0,1.1-1,1.9-1.9,1.9h-12.4c-1,0-1.9-1-1.9-1.9v-55.3H1124.3z"/>
	<path fill="#FFFFFF" d="M1184.7,367.5l-22.9-34.6c-0.9-1.3,0-3,1.7-3h13.5c0.9,0,1.3,0.5,1.7,1l14.3,21.3l14.4-21.2
		c0.4-0.4,0.7-1,1.7-1h13.5c1.7,0,2.4,1.7,1.7,3l-23.1,34.5v33c0,1.1-1,1.9-1.9,1.9h-12.3c-1.1,0-1.9-1-1.9-1.9v-33H1184.7z"/>
	<path fill="#FFFFFF" d="M278.4,489.8c0,2.6-2.1,4.6-4.6,4.6c-2.6,0-4.6-2.1-4.6-4.6v-44.7c0-2.6,2.1-4.6,4.6-4.6h24.7
		c2.3,0,4.1,1.8,4.1,4.1c0,2.3-1.8,4.1-4.1,4.1h-20.1v14.6h15c2.2,0,4,1.8,4,4c0,2.2-1.8,4-4,4h-15V489.8z"/>
	<path fill="#FFFFFF" d="M311.3,467.4c-0.9,0.6-1.5,0.7-2.4,0.7c-2.1,0-3.8-1.7-3.8-3.8c0-0.9,0.4-1.8,1-2.6c2.2-2.4,6.2-5.1,13-5.1
		c9.9,0,15.7,4.9,15.7,13.3v20.2c0,2.3-1.9,4.1-4.1,4.1c-2.3,0-4.1-1.9-4.1-4.1c-2.2,3.4-5.6,4.6-10.4,4.6
		c-7.8,0-12.9-4.9-12.9-11.9c0-7.3,6-11.2,12.8-11.2h10.4v-1.3c0-3.5-2.6-6-7.2-6C315.7,464.3,313.3,465.9,311.3,467.4z
		 M326.4,480.5v-2.2h-9.3c-3.5,0-5.4,1.7-5.4,4.5c0,3,2.2,4.9,6.6,4.9C322.5,487.7,326.4,485,326.4,480.5z"/>
	<path fill="#FFFFFF" d="M397.8,470.5v19.9c0,2.4-1.9,4.1-4.3,4.1c-2.6,0-4.3-1.7-4.3-4.1v-18.3c0-4.5-1.8-7.6-6.9-7.6
		c-5.7,0-7.9,3-7.9,7.6v18.3c0,2.4-1.9,4.1-4.3,4.1c-2.6,0-4.3-1.7-4.3-4.1v-18.3c0-4.5-1.8-7.6-6.9-7.6c-6,0-7.9,3.5-7.9,8.2v17.7
		c0,2.4-1.8,4.1-4.3,4.1s-4.3-1.7-4.3-4.1v-28.9c0-2.4,1.9-4.3,4.3-4.3c2.3,0,4.3,1.9,4.3,4.3c1.5-2.3,4.9-4.8,10.1-4.8
		c6.5,0,9.7,2.1,11.7,5.1c2.6-3.4,6-5.1,11.3-5.1C394.9,456.8,397.8,463.6,397.8,470.5z"/>
	<path fill="#FFFFFF" d="M405,447.9c0-3.7,1.8-5.2,5.1-5.2s5.1,1.6,5.1,5.2c0,3-1.8,5-5.1,5S405,451,405,447.9z M414.4,490.1
		c0,2.4-1.9,4.3-4.3,4.3s-4.3-1.9-4.3-4.3v-28.6c0-2.4,1.9-4.3,4.3-4.3s4.3,1.9,4.3,4.3V490.1z"/>
	<path fill="#FFFFFF" d="M431.2,441.7V485c0,1,1,1.5,1.5,1.5c2.2,0,4,1.7,4,3.9s-1.7,3.9-4,3.9c-6.2,0-10.1-3.5-10.1-10.1v-42.6
		c0-2.4,1.9-4.3,4.3-4.3C429.1,437.3,431.2,439.4,431.2,441.7z"/>
	<path fill="#FFFFFF" d="M450.6,491.2l-12.2-28.1c-0.1-0.4-0.4-1-0.4-1.7c0-2.4,1.9-4.3,4.3-4.3c2.3,0,3.5,1.7,3.9,2.7l8.8,22
		l8.8-22c0.4-1,1.6-2.7,3.9-2.7c2.4,0,4.3,1.9,4.3,4.3c0,0.7-0.1,1.2-0.4,1.7l-14.7,33.3c-3.5,7.8-8.5,13.3-16.4,13.3
		c-2.3,0-4.1-1.7-4.1-3.9c0-2.3,1.8-3.9,4.1-3.9C445.6,501.7,448,497.7,450.6,491.2z"/>
	<path fill="#FFFFFF" d="M525.2,489.9c-3.3,2.8-7.7,5-14.6,5c-9.9,0-17.2-5.5-17.2-15.3c0-5.2,3-10.1,7.9-13.9
		c-1.5-2.9-3.3-7.3-3.3-12.5c0-7.2,4.5-13.6,12.8-13.6c8.5,0,12.1,6.1,12.1,12.3c0,6.3-4.6,11.6-10.7,16.2c3,3.9,7.4,8,11.7,11
		c0.6-0.9,1.3-2.7,1.9-4.4c0.7-1.9,2.2-3.2,4.1-3.2c2.3,0,4.1,1.9,4.1,4.1c0,0.6-0.1,1.3-0.4,2.2c-0.7,2.4-1.7,4.1-3,6
		c1.2,0.9,3,1.7,5.7,3c1.7,0.9,2.4,2.2,2.4,3.8c0,2.2-1.8,4-4,4C532.9,494.4,528.4,492,525.2,489.9z M518.3,484.8
		c-5.1-3.5-9.4-7.8-12.5-12.3c-2.3,1.9-3.5,4.3-3.5,7.1c0,4.6,3.7,7.6,8.5,7.6C514.1,487.1,516,486.4,518.3,484.8z M508.2,461
		c4-2.8,6.2-6.1,6.2-9.3c0-2.4-1-4.6-3.7-4.6c-3,0-4.1,2.6-4.1,6C506.6,456,507.3,459,508.2,461z"/>
	<path fill="#FFFFFF" d="M561.6,467.1c0-18.8,9-27.8,24.7-27.8c9.6,0,15.8,3.8,19.1,8.5c0.6,1,0.9,1.7,0.9,2.6
		c0,2.3-1.9,4.1-4.3,4.1c-1.1,0-2.2-0.5-3.3-1.6c-3.3-3.5-6.7-5.5-12.4-5.5c-10.5,0-15.2,6.5-15.2,19.6c0,13.9,4.8,19.5,15.2,19.5
		c5.8,0,9-1.3,12.8-5.2c1.2-1.2,2.3-1.7,3.4-1.7c2.3,0,4.3,1.9,4.3,4.3c0,1-0.4,1.7-0.9,2.4c-3.8,5.1-11.2,8.5-19.7,8.5
		C570.7,494.9,561.6,486.6,561.6,467.1z"/>
	<path fill="#FFFFFF" d="M629.3,494.8c-10.7,0-17.3-6.1-17.3-19c0-13,6.7-19.1,17.3-19.1c10.7,0,17.3,6.1,17.3,19.1
		C646.5,488.7,639.8,494.8,629.3,494.8z M629.3,464c-5.7,0-8.6,3.9-8.6,11.8c0,7.8,3,11.7,8.6,11.7c5.7,0,8.8-3.9,8.8-11.7
		C637.9,468,634.9,464,629.3,464z"/>
	<path fill="#FFFFFF" d="M708.2,470.5v19.9c0,2.4-1.9,4.1-4.3,4.1c-2.6,0-4.3-1.7-4.3-4.1v-18.3c0-4.5-1.8-7.6-6.9-7.6
		c-5.7,0-7.9,3-7.9,7.6v18.3c0,2.4-1.9,4.1-4.3,4.1c-2.6,0-4.3-1.7-4.3-4.1v-18.3c0-4.5-1.8-7.6-6.9-7.6c-6,0-7.9,3.5-7.9,8.2v17.7
		c0,2.4-1.8,4.1-4.3,4.1c-2.4,0-4.3-1.7-4.3-4.1v-28.9c0-2.4,1.9-4.3,4.3-4.3c2.4,0,4.3,1.9,4.3,4.3c1.5-2.3,4.9-4.8,10.1-4.8
		c6.5,0,9.7,2.1,11.7,5.1c2.6-3.4,6-5.1,11.3-5.1C705.3,456.8,708.2,463.6,708.2,470.5z"/>
	<path fill="#FFFFFF" d="M771.2,470.5v19.9c0,2.4-1.9,4.1-4.3,4.1c-2.6,0-4.3-1.7-4.3-4.1v-18.3c0-4.5-1.8-7.6-6.9-7.6
		c-5.7,0-7.9,3-7.9,7.6v18.3c0,2.4-1.9,4.1-4.3,4.1c-2.6,0-4.3-1.7-4.3-4.1v-18.3c0-4.5-1.8-7.6-6.9-7.6c-6,0-7.9,3.5-7.9,8.2v17.7
		c0,2.4-1.8,4.1-4.3,4.1c-2.4,0-4.3-1.7-4.3-4.1v-28.9c0-2.4,1.9-4.3,4.3-4.3s4.3,1.9,4.3,4.3c1.5-2.3,4.9-4.8,10.1-4.8
		c6.5,0,9.7,2.1,11.7,5.1c2.6-3.4,6-5.1,11.3-5.1C768.2,456.8,771.2,463.6,771.2,470.5z"/>
	<path fill="#FFFFFF" d="M786.5,461.5v18.4c0,3.7,1.2,7.2,7.2,7.2c5.7,0,7.1-3.5,7.1-7.2v-18.4c0-2.4,1.9-4.3,4.3-4.3
		c2.3,0,4.3,1.9,4.3,4.3v18.4c0,7.8-2.9,14.9-15.6,14.9c-12.8,0-15.7-7.2-15.7-14.9v-18.4c0-2.4,1.9-4.3,4.3-4.3
		C784.6,457.3,786.5,459.1,786.5,461.5z"/>
	<path fill="#FFFFFF" d="M848.6,470.5v19.9c0,2.4-1.9,4.1-4.3,4.1c-2.6,0-4.3-1.7-4.3-4.1v-18.3c0-4.5-1.8-7.6-6.9-7.6
		c-6,0-7.9,3.5-7.9,8.2v17.7c0,2.4-1.8,4.1-4.3,4.1c-2.4,0-4.3-1.7-4.3-4.1v-28.9c0-2.4,1.9-4.3,4.3-4.3c2.3,0,4.3,1.9,4.3,4.3
		c1.5-2.3,4.9-4.8,10.1-4.8C846.2,456.8,848.6,463.6,848.6,470.5z"/>
	<path fill="#FFFFFF" d="M855.8,447.9c0-3.7,1.8-5.2,5.1-5.2c3.3,0,5.1,1.6,5.1,5.2c0,3-1.8,5-5.1,5
		C857.6,452.9,855.8,451,855.8,447.9z M865.2,490.1c0,2.4-1.9,4.3-4.3,4.3c-2.3,0-4.3-1.9-4.3-4.3v-28.6c0-2.4,1.9-4.3,4.3-4.3
		c2.3,0,4.3,1.9,4.3,4.3V490.1z"/>
	<path fill="#FFFFFF" d="M875.8,451.2c0-2.3,1.9-4.1,4.1-4.1c2.3,0,4.1,1.9,4.1,4.1v6.7h3.5c1.9,0,3.5,1.6,3.5,3.5s-1.6,3.5-3.5,3.5
		h-3.5v19.1c0,1.8,1.6,2.8,3,2.8c2.1,0,3.8,1.7,3.8,3.8c0,2.1-1.7,3.8-3.8,3.8c-7.1,0-11.4-4.5-11.4-10.7v-18.6h-1.8
		c-1.9,0-3.5-1.6-3.5-3.5c0-1.9,1.6-3.5,3.5-3.5h1.8v-6.8H875.8z"/>
	<path fill="#FFFFFF" d="M906.8,491.2l-12.2-28.1c-0.1-0.4-0.4-1-0.4-1.7c0-2.4,1.9-4.3,4.3-4.3c2.3,0,3.5,1.7,3.9,2.7l8.8,22
		l8.8-22c0.4-1,1.6-2.7,3.9-2.7c2.3,0,4.3,1.9,4.3,4.3c0,0.7-0.1,1.2-0.4,1.7l-14.7,33.3c-3.5,7.8-8.5,13.3-16.4,13.3
		c-2.3,0-4.1-1.7-4.1-3.9c0-2.3,1.8-3.9,4.1-3.9C901.9,501.7,904.2,497.7,906.8,491.2z"/>
	<path fill="#FFFFFF" d="M969.9,447.6c-6.6,0-9,3-9,6.2c0,10.4,28.9,5.6,28.9,25.3c0,9.6-6.8,15.7-19.9,15.7c-9.4,0-16.9-4.6-20-9.6
		c-0.4-0.6-0.6-1.5-0.6-2.2c0-2.4,1.9-4.3,4.1-4.3c1.7,0,2.7,1,3.5,1.7c3.3,3.3,7.6,6,13,6c7.2,0,10.7-2.4,10.7-7.3
		c0-11.6-28.9-6.2-28.9-25.3c0-7.8,5.6-14.5,18.3-14.5c7.9,0,14.9,2.9,18,7.4c0.5,0.7,0.7,1.6,0.7,2.6c0,2.3-1.9,4.1-4.3,4.1
		c-1.1,0-2.2-0.6-3.4-1.7C978.6,449.5,974.5,447.6,969.9,447.6z"/>
	<path fill="#FFFFFF" d="M1011.8,456.8c13.4,0,15.8,10.4,15.8,15.7c0,2.9,0,6.3-4.9,6.3h-19.6c0,5.7,4,8.3,9.3,8.3
		c3.5,0,6-1.2,7.8-2.4c0.9-0.6,1.5-0.9,2.6-0.9c2.1,0,3.8,1.7,3.8,3.8c0,1.2-0.6,2.3-1.3,2.9c-1.3,1.2-5.5,4.4-12.8,4.4
		c-11,0-17.8-6-17.8-19.1C994.8,463.5,1001.1,456.8,1011.8,456.8z M1003.6,471.6h15.7c0-3.9-2.2-7.7-7.3-7.7
		C1007.2,464,1003.9,466.6,1003.6,471.6z"/>
	<path fill="#FFFFFF" d="M1042.2,461.9c1.5-3,5.2-5.1,8.5-5.1c2.2,0,4,1.8,4,4c0,2.2-1.8,4-4,4c-5.5,0-8.5,3.5-8.5,8.8V490
		c0,2.4-1.9,4.3-4.3,4.3c-2.4,0-4.3-1.9-4.3-4.3v-28.6c0-2.4,1.9-4.3,4.3-4.3c2.3,0,4.3,1.9,4.3,4.3V461.9z"/>
	<path fill="#FFFFFF" d="M1072,491.9l-12.7-28.6c-0.1-0.4-0.4-1-0.4-1.7c0-2.4,1.9-4.3,4.3-4.3c2.3,0,3.5,1.7,3.9,2.7l8.8,22l8.8-22
		c0.4-1,1.6-2.7,3.9-2.7c2.4,0,4.3,1.9,4.3,4.3c0,0.7-0.1,1.2-0.4,1.7l-12.7,28.6c-0.7,1.6-2.2,2.6-3.9,2.6
		C1074.2,494.4,1072.7,493.4,1072,491.9z"/>
	<path fill="#FFFFFF" d="M1097.5,447.9c0-3.7,1.8-5.2,5.1-5.2c3.3,0,5.1,1.6,5.1,5.2c0,3-1.8,5-5.1,5
		C1099.3,452.9,1097.5,451,1097.5,447.9z M1106.7,490.1c0,2.4-1.9,4.3-4.3,4.3s-4.3-1.9-4.3-4.3v-28.6c0-2.4,1.9-4.3,4.3-4.3
		s4.3,1.9,4.3,4.3V490.1z"/>
	<path fill="#FFFFFF" d="M1130.2,456.8c7.3,0,11.4,3.7,12.9,5.5c0.6,0.9,0.9,1.5,0.9,2.4c0,2.2-1.7,3.8-3.8,3.8
		c-1.2,0-2.2-0.6-2.9-1.3c-1-1.1-3-3-7.1-3c-5.5,0-8.5,4.3-8.5,11.7c0,7.6,3,11.8,8.5,11.8c3.7,0,6-1.8,7.8-3.2
		c0.9-0.6,1.6-0.9,2.4-0.9c2.2,0,3.8,1.7,3.8,3.8c0,1.1-0.4,2.1-1.3,2.9c-1.8,1.7-6.2,4.5-12.7,4.5c-10.7,0-17.2-6.2-17.2-19.1
		C1113.1,462.9,1119.4,456.8,1130.2,456.8z"/>
	<path fill="#FFFFFF" d="M1165.9,456.8c13.4,0,15.8,10.4,15.8,15.7c0,2.9,0,6.3-4.9,6.3h-19.6c0,5.7,4,8.3,9.3,8.3
		c3.5,0,6-1.2,7.8-2.4c0.9-0.6,1.5-0.9,2.6-0.9c2.1,0,3.8,1.7,3.8,3.8c0,1.2-0.6,2.3-1.3,2.9c-1.3,1.2-5.5,4.4-12.8,4.4
		c-11,0-17.8-6-17.8-19.1C1148.9,463.5,1155.2,456.8,1165.9,456.8z M1157.6,471.6h15.7c0-3.9-2.2-7.7-7.3-7.7
		C1161.3,464,1158,466.6,1157.6,471.6z"/>
	<path fill="#FFFFFF" d="M1195.8,467.1c0,5.8,19.5,3.2,19.5,16.2c0,7.4-6.3,11.2-14.5,11.2c-6.8,0-12.1-3-14-5.5
		c-0.6-0.9-1-1.5-1-2.4c0-2.1,1.7-3.8,3.8-3.8c0.7,0,1.6,0.2,2.4,1c2.2,1.7,4.8,3.3,8.8,3.3c3.5,0,5.8-1,5.8-3.2
		c0-6.5-19.4-3-19.4-16.6c0-7.2,6-10.6,13.3-10.6c5.6,0,10.6,2.2,12.8,4.9c0.5,0.6,0.7,1.2,0.7,2.4c0,2.1-1.7,3.8-3.8,3.8
		c-1.1,0-1.8-0.5-2.7-1.1c-1.7-1.2-3.9-2.6-7.1-2.6C1197.5,464.2,1195.8,465.2,1195.8,467.1z"/>
</g>
<g>
	<path fill="#FFFFFF" d="M183.6,368.3v-0.9v-51.9c0-16.2-13.2-29.5-29.5-29.5c-4.3,0-8.3,0.9-11.9,2.6c-3-13-14.7-22.8-28.7-22.8
		s-25.7,9.7-28.7,22.8c-3.7-1.6-7.7-2.6-11.9-2.6c-14,0-25.7,9.7-28.7,22.8c-3.7-1.6-7.7-2.6-11.9-2.6c-16.2,0-29.5,13.2-29.5,29.5
		v60.9l0.1,9.1v31.5c0,61,49.6,110.6,110.6,110.6s110.8-49.6,110.8-110.6v-20.3C224.1,392.8,206.6,372.6,183.6,368.3z M205.9,437.4
		c0,50.9-41.4,92.3-92.3,92.3s-92.3-41.4-92.3-92.3v-40.6l-0.1-9.1v-51.8c0-6.2,5-11.2,11.2-11.2s11.2,5,11.2,11.2v74.2h18.3v-74.2
		v-20.3c0-6.2,5-11.2,11.2-11.2c6.2,0,11.2,5,11.2,11.2V394h18.3v-78.4v-20.2c0-6.2,5-11.2,11.2-11.2s11.2,5,11.2,11.2v20.2v67.6
		h18.3v-67.6c0-6.2,5-11.2,11.2-11.2c6.2,0,11.2,5,11.2,11.2v51.8v18.3v35.9c-23.4,7.7-40.3,29.7-40.3,55.5h18.3
		c0-22.2,18-40.2,40.2-40.2l0,0V387c12.9,3.9,22.3,16,22.3,30.1v20.3H205.9z"/>
</g>
</svg>
